<svg xmlns="http://www.w3.org/2000/svg" version="1.1" xmlns:xlink="http://www.w3.org/1999/xlink" xmlns:svgjs="http://svgjs.dev/svgjs" width="100%" height="100%" viewBox="0 0 1000 600"><rect width="1000" height="600" x="0" y="0" fill="#262223"/><g><circle r="166.66666666666666" cx="378.26247660319007" cy="400.4847121760647" fill="#ddc6b6" transform="matrix(0.5907488953745631,0,0,0.5907488953745632,0,63.41409046347019)"/><path d="M402.5737221666404 475.484710599335L402.5737221666404 475.484710599335Q395.8190196626465 475.484710599335 390.7743684254865 473.54665249692323Q385.7582180427737 471.58009354006424 383.70615652257305 467.67547648079346L383.70615652257305 467.67547648079346Q382.2526129457642 468.50200125976323 379.1745206654632 469.7275380009942Q376.0964283851622 470.98157559667237 373.01833610486113 470.98157559667237L373.01833610486113 470.98157559667237Q369.9402438245601 470.98157559667237 367.8881823043595 469.52803201986353L367.8881823043595 469.52803201986353Q362.9860353394356 466.0509277773013 361.13347980036554 457.643175715368Q359.28092426129547 449.20692279898736 358.45439948232575 439.17462203356183L358.45439948232575 439.17462203356183Q358.25489350119517 435.868522917683 358.14089008340625 432.5054220929096Q358.0553875200645 429.11382041368904 358.0553875200645 425.60821531667955L358.0553875200645 425.60821531667955Q358.0553875200645 413.72335901218395 359.16692084350655 401.2114839098492Q360.3069550213958 388.6711079530673 362.04550714267697 377.38476959196356Q363.78405926395806 366.09843123085983 365.83612078415877 357.3771697700069Q367.8881823043595 348.65590830915403 369.5412318622989 344.15277330649144L369.5412318622989 344.15277330649144Q369.9402438245601 343.5257545086523 371.9923053447608 343.0127391286021Q374.0443668649615 342.49972374855196 376.72344718300127 342.49972374855196L376.72344718300127 342.49972374855196Q379.6020334821717 342.49972374855196 382.2526129457642 343.24074596418Q384.931693263804 343.9532673253608 386.15723000503493 346.2048348266921L386.15723000503493 346.2048348266921Q385.55871206164306 349.0834211258625 383.27864370586457 357.17766378887626Q381.0270762045333 365.3004073063373 378.4619993042824 376.8717542119134Q375.89692240403156 388.47160197193665 373.7593583204892 402.12351125216065Q371.59329338249955 415.7754205323846 371.1942814202383 429.7123383570809L371.1942814202383 429.7123383570809L371.1942814202383 434.8424921575826Q371.1942814202383 441.82520149715435 371.9068027814191 449.1214202356457Q372.6193241425999 456.38913811968973 374.5573822450117 461.43378935684973Q376.5239412018706 466.4499397395625 380.0010454444329 466.64944572069317L380.0010454444329 466.64944572069317L380.4285582611414 466.64944572069317Q381.0270762045333 466.64944572069317 381.73959756571406 466.56394315735145Q382.48061978134206 466.4499397395625 383.27864370586457 466.2504337584319L383.27864370586457 466.2504337584319Q382.87963174360334 464.59738420049246 382.87963174360334 463.57135344039216L382.87963174360334 463.57135344039216Q382.87963174360334 457.643175715368 389.03581630420535 450.2329535590877Q395.19200086480737 442.8512322572547 406.1648298269916 436.49554171552205Q417.1376587891758 430.1398511737894 431.10307746831927 427.8882836724581L431.10307746831927 427.8882836724581Q431.7300962661584 427.6602768368802 432.24311164620855 427.6602768368802Q432.75612702625875 427.6602768368802 432.95563300738934 427.6602768368802L432.95563300738934 427.6602768368802Q435.2072005087207 427.6602768368802 435.2072005087207 428.68630759698055L435.2072005087207 428.68630759698055Q435.2072005087207 429.94034519265875 432.1291082284196 430.5388631360506L432.1291082284196 430.5388631360506Q424.3198741098782 431.76439987728156 417.1376587891758 435.27000497429106Q409.9554434684734 438.74710921685335 404.22677172457986 443.1647416561743Q398.469599126239 447.5823740954952 395.07799744701845 451.88600311702714Q391.71489662224513 456.1896321385591 391.71489662224513 459.06821843772957L391.71489662224513 459.06821843772957Q391.71489662224513 461.3197859390608 393.96646412357643 462.4598201169501Q396.2180316249077 463.57135344039216 399.92314270304786 463.57135344039216L399.92314270304786 463.57135344039216Q405.4523084658108 463.57135344039216 412.8340297676438 461.3197859390608Q420.2157510694768 459.06821843772957 427.3124638268375 454.7645894161975Q434.3806757297509 450.46096039466556 438.9978141502025 444.30477583406355Q443.614952570654 438.1485912734615 443.614952570654 430.5388631360506L443.614952570654 430.5388631360506Q443.614952570654 424.18317259431797 439.8243389291722 418.7395093948967Q436.0337252876904 413.29584619547546 427.1984604090486 409.93274537070215Q418.39169638485396 406.5411436914816 403.59975292674073 406.5411436914816L403.59975292674073 406.5411436914816Q399.69513586746996 406.5411436914816 395.59101282706865 407.1396616348734Q391.4868897866673 407.7666804327125 387.6107735818438 409.6192359717826L387.6107735818438 409.6192359717826Q386.9837547840047 409.6192359717826 386.4707394039545 409.70473853512425Q385.95772402390435 409.8187419529132 385.55871206164306 409.8187419529132L385.55871206164306 409.8187419529132Q381.65409500237234 409.8187419529132 380.0010454444329 407.88068385050144Q378.37649674094075 405.91412489364245 378.37649674094075 403.66255739231116L378.37649674094075 403.66255739231116Q378.37649674094075 401.41098989097986 379.6020334821717 399.6724377696987Q380.82757022340263 397.90538479397037 382.2526129457642 397.90538479397037L382.2526129457642 397.90538479397037Q391.9144026033758 397.5063728317091 400.72116662757037 395.45431131150843Q409.55643150621216 393.4022497913078 418.1636895492761 388.89911478864514L418.1636895492761 388.89911478864514Q424.54788094545603 385.5930156727663 431.6160928483695 380.46286187226457Q438.6843047512829 375.33270807176285 443.7289559884429 368.46400214998005Q448.7451063711557 361.5952962281972 448.7451063711557 353.1875441662638L448.7451063711557 353.1875441662638Q448.7451063711557 347.23086558679245 444.9544927296739 343.63975792644123Q441.16387908819206 340.04865026609 434.8936911098011 337.99658874588937Q428.6520039858574 335.9445272256887 421.2417818295771 335.23200586450787Q413.86006052774417 334.51948450332713 406.67784520704174 334.51948450332713L406.67784520704174 334.51948450332713Q399.69513586746996 334.51948450332713 393.65295472465687 334.9184964655883Q387.6107735818438 335.3175084278496 384.1051684848343 335.7450212445581L384.1051684848343 335.7450212445581Q379.1745206654632 336.1440332068193 370.16825066013797 337.7970827647588Q361.13347980036554 339.42163146825095 350.7591687815732 342.10071178629073Q340.41335861722814 344.7797921043305 331.0650783585361 348.76991172694295Q321.71679809984414 352.7600313495554 315.67461695703105 357.8046825867154Q309.6324358142179 362.8208329694282 309.6324358142179 369.17652351116084L309.6324358142179 369.17652351116084Q309.6324358142179 374.3066773116625 313.822061417961 377.4987730097525Q318.04018787615126 380.6908687078424 324.5953843990145 380.6908687078424L324.5953843990145 380.6908687078424Q331.37858775745565 380.6908687078424 339.90034323717794 377.09976104749126Q348.393597862453 373.50865338714004 357.2288627410948 365.3004073063373L357.2288627410948 365.3004073063373Q357.62787470335604 364.87289448962883 357.8558815389339 364.87289448962883L357.8558815389339 364.87289448962883Q358.25489350119517 364.87289448962883 358.25489350119517 365.69941926859855L358.25489350119517 365.69941926859855Q358.25489350119517 366.92495600982954 357.4283687222254 368.9770175300302Q356.6018439432557 371.02907905023085 354.54978242305503 372.8816345893009L354.54978242305503 372.8816345893009Q347.36756710235267 379.4368311121642 338.5608030781581 382.62892681025414Q329.7255381995162 385.82102250834413 321.5172921187135 385.82102250834413L321.5172921187135 385.82102250834413Q319.46523059851285 385.82102250834413 317.41316907831214 385.5930156727663Q315.3611075581115 385.39350969163564 313.5085520190414 384.9944977293744L313.5085520190414 384.9944977293744Q306.5543435339169 383.341448171435 302.53572305685725 378.4108003520639Q298.54560343424475 373.50865338714004 298.54560343424475 367.1244619909601L298.54560343424475 367.1244619909601Q298.54560343424475 358.1181919856349 304.5022820137162 351.44899204498273Q310.4304597387404 344.7797921043305 320.17775195969364 340.04865026609Q329.92504418064686 335.3175084278496 341.52489194067016 332.2394161475486Q353.12473970069345 329.1613238672476 364.4110780617972 327.3372691826247L364.4110780617972 327.3372691826247Q369.5412318622989 326.510744403655 376.5239412018706 325.99772902360485Q383.5066505414424 325.48471364355464 391.28738380553665 325.48471364355464L391.28738380553665 325.48471364355464Q402.5737221666404 325.48471364355464 414.2875733444526 326.9097563659162Q425.9729236678176 328.36329994272506 435.9197218699015 331.9544076030762Q445.8665200719853 335.54551526342743 451.9372020692457 341.9012058051601Q457.9793832120588 348.25689634689274 457.9793832120588 357.89018515005705L457.9793832120588 357.89018515005705Q457.9793832120588 366.52594404756826 453.27674222826556 373.79366193161235Q448.54560039002513 381.08988067010364 440.9643731070615 386.93255583178615Q433.3546449696506 392.77523099346865 424.94689290771726 396.87935403387Q416.5391408457839 400.9834770742714 409.15741954395094 403.0355385944721L409.15741954395094 403.0355385944721Q420.2157510694768 403.66255739231116 430.39055610713854 406.62664625482324Q440.536860290353 409.6192359717826 447.0065542498746 416.37393847577647Q453.4762482093962 423.1571418342176 453.4762482093962 435.27000497429106L453.4762482093962 435.27000497429106Q453.4762482093962 445.102799758586 448.54560039002513 452.71252789599686Q443.614952570654 460.2937551789605 435.8342193065598 465.3384064161205Q428.02498518801826 470.3545567988333 419.18972030937647 472.9196336990841Q410.3829562851819 475.484710599335 402.5737221666404 475.484710599335Z " fill="#262223" transform="matrix(0.5907488953745631,0,0,0.5907488953745632,0,63.41409046347019)"/><path d="M728.7212074583094 473.11774018249207L728.7212074583094 473.11774018249207Q722.1982716784928 473.11774018249207 717.3267120454653 471.24618054946455Q712.4826753482176 469.34709798065717 710.5010239720709 465.5764557788224L710.5010239720709 465.5764557788224Q709.0973542473002 466.37462091643704 706.1248771830801 467.5581071549691Q703.1524001188599 468.769116329281 700.1799230546396 468.769116329281L700.1799230546396 468.769116329281Q697.2074459904195 468.769116329281 695.2257946142727 467.36544660451045L695.2257946142727 467.36544660451045Q690.4918496601442 464.0076484393728 688.7028588344563 455.8883823843269Q686.9138680087681 447.74159339350126 686.1157028711534 438.05351999900586L686.1157028711534 438.05351999900586Q685.9230423206948 434.8608594485471 685.8129505775755 431.6131530265288Q685.730381770236 428.3379236687306 685.730381770236 424.9526025678132L685.730381770236 424.9526025678132Q685.730381770236 413.4755383476297 686.8037762656488 401.3929695402902Q687.9046936968415 389.28287779717095 689.5835927794103 378.3837952283636Q691.2624918619791 367.4847126595563 693.2441432381258 359.06269431093244Q695.2257946142727 350.6406759623086 696.822124889502 346.29205210909754L696.822124889502 346.29205210909754Q697.2074459904195 345.68654752194163 699.1890973665663 345.1911346779049Q701.170748742713 344.6957218338682 703.7579047060158 344.6957218338682L703.7579047060158 344.6957218338682Q706.5377212197773 344.6957218338682 709.0973542473002 345.41131816414344Q711.684510210603 346.09939155863884 712.867996449135 348.27370348524437L712.867996449135 348.27370348524437Q712.2900147977589 351.05351999900586 710.0881799353735 358.8700337604737Q707.9138680087681 366.7140704577214 705.4368037885846 377.8883823843269Q702.9597395684011 389.09021724671226 700.8955193849149 402.27370348524437Q698.8037762656488 415.4571897237765 698.4184551647314 428.91590532010673L698.4184551647314 428.91590532010673L698.4184551647314 433.8700337604737Q698.4184551647314 440.6131530265288 699.1065285592268 447.65902458616176Q699.7946019537222 454.677373210015 701.6661615867497 459.5489328430425Q703.5652441555571 464.3929695402902 706.9230423206948 464.58563009074896L706.9230423206948 464.58563009074896L707.3358863573919 464.58563009074896Q707.9138680087681 464.58563009074896 708.6019414032635 464.50306128340947Q709.3175377335388 464.3929695402902 710.0881799353735 464.2003089898315L710.0881799353735 464.2003089898315Q709.7028588344562 462.60397871460214 709.7028588344562 461.6131530265287L709.7028588344562 461.6131530265287Q709.7028588344562 455.8883823843269 715.6478129628965 448.7324190815746Q721.5927670913369 441.60397871460214 732.1890973665663 435.46636403570307Q742.7854276417956 429.328749356804 756.2716661739057 427.15443743019847L756.2716661739057 427.15443743019847Q756.8771707610617 426.9342539439599 757.3725836050984 426.9342539439599Q757.867996449135 426.9342539439599 758.0606569995938 426.9342539439599L758.0606569995938 426.9342539439599Q760.2349689261994 426.9342539439599 760.2349689261994 427.9250796320333L760.2349689261994 427.9250796320333Q760.2349689261994 429.13608880634524 757.2624918619791 429.7140704577214L757.2624918619791 429.7140704577214Q749.7212074583094 430.89755669625356 742.7854276417956 434.28287779717095Q735.8496478252819 437.6406759623086 730.3175377335388 441.90673100818015Q724.7579047060158 446.1727860540517 721.4826753482176 450.328749356804Q718.2349689261994 454.4847126595563 718.2349689261994 457.2645291733178L718.2349689261994 457.2645291733178Q718.2349689261994 459.43884109992325 720.4092808528048 460.5397585311159Q722.5835927794103 461.6131530265287 726.1615744307865 461.6131530265287L726.1615744307865 461.6131530265287Q731.5010239720708 461.6131530265287 738.6294643390434 459.43884109992325Q745.7579047060158 457.2645291733178 752.6111157151902 453.1085658705655Q759.4368037885846 448.95260256781313 763.8955193849149 443.0076484393728Q768.3542349812452 437.06269431093244 768.3542349812452 429.7140704577214L768.3542349812452 429.7140704577214Q768.3542349812452 423.5764557788223 764.6936845225296 418.3195750448774Q761.033134063814 413.06269431093244 752.5010239720708 409.81498788891406Q743.9964368161076 406.5397585311159 729.7120331463827 406.5397585311159L729.7120331463827 406.5397585311159Q725.941390944548 406.5397585311159 721.9780881922543 407.11774018249207Q718.0147854399607 407.72324476964803 714.2716661739057 409.5122355953361L714.2716661739057 409.5122355953361Q713.6661615867497 409.5122355953361 713.170748742713 409.59480440267555Q712.6753358986764 409.7048961457948 712.2900147977589 409.7048961457948L712.2900147977589 409.7048961457948Q708.5193725959241 409.7048961457948 706.9230423206948 407.8333365127673Q705.3542349812452 405.93425394395996 705.3542349812452 403.75994201735443L705.3542349812452 403.75994201735443Q705.3542349812452 401.58563009074896 706.5377212197773 399.90673100818015Q707.7212074583094 398.2003089898315 709.0973542473002 398.2003089898315L709.0973542473002 398.2003089898315Q718.427629476658 397.81498788891406 726.9322166326214 395.8333365127673Q735.4643267243645 393.8516851366205 743.7762533298691 389.5030612834095L743.7762533298691 389.5030612834095Q749.941390944548 386.31040073295077 756.7670790179425 381.3562722925838Q763.5927670913369 376.4021438522168 768.4643267243645 369.7691163292811Q773.3083634216122 363.1360888063453 773.3083634216122 355.0168227512994L773.3083634216122 355.0168227512994Q773.3083634216122 349.2645291733178 769.6478129628965 345.7966392650609Q765.987262504181 342.328749356804 759.9322166326214 340.3470979806572Q753.9046936968415 338.36544660451045 746.7487303940892 337.677373210015Q739.6202900271168 336.9892998155196 732.684510210603 336.9892998155196L732.684510210603 336.9892998155196Q725.941390944548 336.9892998155196 720.1065285592268 337.37462091643704Q714.2716661739057 337.75994201735443 710.8863450729883 338.1727860540517L710.8863450729883 338.1727860540517Q706.1248771830801 338.5581071549691 697.427629476658 340.1544374301985Q688.7028588344563 341.72324476964803 678.684510210603 344.31040073295077Q668.6936845225296 346.89755669625356 659.6661615867497 350.75076770542785Q650.6386386509699 354.60397871460214 644.8037762656488 359.47553834762965Q638.9689138803278 364.3195750448774 638.9689138803278 370.4571897237765L638.9689138803278 370.4571897237765Q638.9689138803278 375.41131816414344 643.0147854399609 378.4938869714829Q647.0881799353735 381.5764557788223 653.4184551647314 381.5764557788223L653.4184551647314 381.5764557788223Q659.9689138803278 381.5764557788223 668.1982716784929 378.1085658705655Q676.4001065408781 374.6406759623086 684.9322166326212 366.7140704577214L684.9322166326212 366.7140704577214Q685.3175377335388 366.3012264210242 685.5377212197773 366.3012264210242L685.5377212197773 366.3012264210242Q685.9230423206948 366.3012264210242 685.9230423206948 367.09939155863884L685.9230423206948 367.09939155863884Q685.9230423206948 368.28287779717095 685.1248771830801 370.2645291733178Q684.3267120454653 372.24618054946455 682.3450606693186 374.03517137515263L682.3450606693186 374.03517137515263Q675.4092808528048 380.3654466045104 666.9046936968415 383.44801541184984Q658.3725836050984 386.53058421918934 650.4459781005112 386.53058421918934L650.4459781005112 386.53058421918934Q648.4643267243645 386.53058421918934 646.4826753482176 386.31040073295077Q644.5010239720709 386.11774018249207 642.7120331463827 385.7324190815746L642.7120331463827 385.7324190815746Q635.9964368161076 384.1360888063453 632.1157028711534 379.37462091643704Q628.2624918619791 374.6406759623086 628.2624918619791 368.4755383476297L628.2624918619791 368.4755383476297Q628.2624918619791 359.77829064120766 634.0147854399609 353.3379236687306Q639.7395560821626 346.89755669625356 649.1524001188599 342.328749356804Q658.5652441555571 337.75994201735443 669.7670790179425 334.78746495313425Q680.9689138803278 331.81498788891406 691.867996449135 330.05351999900586L691.867996449135 330.05351999900586Q696.822124889502 329.25535486139114 703.5652441555571 328.75994201735443Q710.3083634216122 328.2645291733178 717.822124889502 328.2645291733178L717.822124889502 328.2645291733178Q728.7212074583094 328.2645291733178 740.033134063814 329.6406759623086Q751.3175377335388 331.0443456870792 760.9230423206948 334.5122355953361Q770.5285469078507 337.980125503593 776.3909322289517 344.11774018249207Q782.2257946142727 350.25535486139114 782.2257946142727 359.5581071549691L782.2257946142727 359.5581071549691Q782.2257946142727 367.89755669625356 777.684510210603 374.91590532010673Q773.1157028711534 381.9617768797398 765.7946019537222 387.60397871460214Q758.4459781005112 393.24618054946455 750.3267120454653 397.2094833017581Q742.2074459904195 401.1727860540517 735.0790056234471 403.15443743019847L735.0790056234471 403.15443743019847Q745.7579047060158 403.75994201735443 755.5835927794103 406.62232733845536Q765.381757917025 409.5122355953361 771.6294643390434 416.03517137515263Q777.8771707610617 422.58563009074896 777.8771707610617 434.28287779717095L777.8771707610617 434.28287779717095Q777.8771707610617 443.77829064120766 773.1157028711534 451.12691449441866Q768.3542349812452 458.44801541184984 760.8404735133553 463.3195750448774Q753.2991891096856 468.1636117421251 744.7670790179425 470.6406759623086Q736.2624918619791 473.11774018249207 728.7212074583094 473.11774018249207ZM812.7487303940892 471.93425394395996L812.7487303940892 471.93425394395996Q803.2257946142727 471.93425394395996 797.3909322289517 466.07186862285903Q791.5560698436304 460.2370062375379 788.8588221372084 451.62232733845536Q786.1890973665663 443.0076484393728 786.1890973665663 434.6681988980884L786.1890973665663 434.6681988980884Q786.1890973665663 425.1727860540517 788.170748742713 415.5397585311159Q790.1524001188599 405.93425394395996 794.4184551647314 398.0076484393728Q798.684510210603 390.0810429347856 805.2074459904195 385.2370062375379Q811.7579047060158 380.3654466045104 820.6753358986764 380.3654466045104L820.6753358986764 380.3654466045104Q827.0056111280342 380.3654466045104 830.5835927794103 384.1360888063453Q834.1615744307865 387.90673100818015 834.1615744307865 395.2278319256113L834.1615744307865 395.2278319256113Q834.1615744307865 405.13608880634524 829.2900147977589 412.78746495313425Q824.4459781005112 420.41131816414344 817.0973542473002 425.1727860540517Q809.7762533298691 429.90673100818015 801.8496478252819 431.6957218338682L801.8496478252819 431.6957218338682L801.8496478252819 432.68654752194163Q801.8496478252819 440.8058135769875 803.5285469078507 447.8516851366205Q805.2074459904195 454.89755669625356 809.0881799353735 459.13608880634524Q812.941390944548 463.40214385221685 819.2991891096856 463.40214385221685L819.2991891096856 463.40214385221685Q827.0056111280342 463.40214385221685 831.1890973665663 456.9617768797398Q835.3450606693185 450.52140990726275 837.7120331463827 440.6131530265288L837.7120331463827 440.6131530265288Q837.9046936968415 439.81498788891406 838.4001065408781 439.12691449441866Q838.8955193849149 438.43884109992325 839.3083634216122 438.43884109992325L839.3083634216122 438.43884109992325Q841.0973542473002 438.43884109992325 840.8771707610617 441.025997063226L840.8771707610617 441.025997063226Q840.2991891096856 446.3654466045104 838.5101982839975 451.12691449441866Q836.7212074583094 455.8883823843269 834.7395560821626 459.24618054946455L834.7395560821626 459.24618054946455Q830.9689138803278 465.3837952283636 825.7395560821626 468.65902458616176Q820.4826753482176 471.93425394395996 812.7487303940892 471.93425394395996ZM802.0423083757406 426.9342539439599L802.0423083757406 427.15443743019847Q808.4001065408783 425.5581071549691 813.1340514950066 420.90673100818015Q817.8955193849149 416.25535486139114 820.5652441555571 409.89755669625356Q823.2624918619791 403.56728146689574 823.2624918619791 397.0168227512994L823.2624918619791 397.0168227512994L823.2624918619791 396.025997063226Q823.2624918619791 392.4755383476297 822.1615744307865 389.28287779717095Q821.0606569995938 386.11774018249207 818.0881799353735 386.11774018249207L818.0881799353735 386.11774018249207Q814.5377212197773 386.11774018249207 811.8679964491351 389.58563009074896Q809.170748742713 393.05351999900586 807.2991891096856 398.4204924760701Q805.427629476658 403.75994201735443 804.2166203023461 409.5122355953361Q803.033134063814 415.2645291733178 802.5377212197773 419.9984741274462Q802.0423083757406 424.75994201735443 802.0423083757406 426.9342539439599L802.0423083757406 426.9342539439599ZM894.381757917025 469.1544374301985L894.381757917025 469.1544374301985Q888.2441432381258 469.1544374301985 884.473501036291 465.3012264210242Q880.730381770236 461.4204924760701 878.6386386509699 455.3929695402902Q876.5468955317039 449.3379236687306 875.7762533298691 443.09021724671226Q874.9780881922544 436.84251082469393 874.9780881922544 432.1085658705655L874.9780881922544 432.1085658705655Q872.5835927794103 441.025997063226 868.9230423206947 449.53058421918934Q865.2624918619791 458.06269431093244 860.9138680087681 463.5122355953361Q856.5377212197773 468.9617768797398 851.3909322289516 468.9617768797398L851.3909322289516 468.9617768797398L851.1982716784928 468.9617768797398Q846.4368037885846 468.9617768797398 843.2716661739057 464.50306128340947Q840.1065285592268 460.0443456870792 838.5101982839975 452.6957218338682Q836.9138680087681 445.37462091643704 836.9138680087681 436.84251082469393L836.9138680087681 436.84251082469393L836.9138680087681 434.8608594485471Q836.9138680087681 426.9342539439599 838.3175377335388 417.328749356804Q839.6936845225296 407.72324476964803 843.2716661739057 398.9984741274462Q846.822124889502 390.27370348524437 853.0698313115204 384.63150165038195Q859.3175377335388 378.9892998155196 869.033134063814 378.9892998155196L869.033134063814 378.9892998155196Q872.8037762656488 378.9892998155196 875.8588221372084 380.6681988980884Q878.941390944548 382.3470979806572 880.3175377335388 385.5397585311159L880.3175377335388 385.5397585311159Q881.7212074583094 383.94342825588654 884.0881799353735 382.9526025678132Q886.4551524124379 381.9617768797398 889.8404735133553 381.9617768797398L889.8404735133553 381.9617768797398Q891.0239597518873 381.9617768797398 892.5101982839975 382.15443743019847Q893.9964368161075 382.3470979806572 895.5927670913369 382.75994201735443L895.5927670913369 382.75994201735443Q894.381757917025 387.3012264210242 892.8129505775755 395.2278319256113Q891.2166203023461 403.15443743019847 890.1432258069333 412.56728146689574Q889.0423083757405 421.980125503593 889.0423083757405 430.89755669625356L889.0423083757405 430.89755669625356L889.0423083757405 431.6957218338682Q889.0423083757405 435.46636403570307 889.427629476658 440.6131530265288Q889.8404735133553 445.75994201735443 890.8312992014287 450.7140704577214Q891.822124889502 455.6681988980884 893.6111157151902 459.05351999900586Q895.3725836050984 462.4113181641434 898.1524001188598 462.4113181641434L898.1524001188598 462.4113181641434L898.3450606693186 462.4113181641434Q899.941390944548 462.4113181641434 901.8129505775755 460.84251082469393Q903.7120331463827 459.24618054946455 905.8863450729882 454.89755669625356L905.8863450729882 454.89755669625356Q908.8588221372084 449.1452631182719 911.4459781005112 440.03517137515263L911.4459781005112 440.03517137515263Q911.8312992014287 438.24618054946455 913.0147854399607 438.24618054946455L913.0147854399607 438.24618054946455Q914.0056111280342 438.24618054946455 914.0056111280342 440.6131530265288L914.0056111280342 440.6131530265288L914.0056111280342 441.41131816414344Q913.6202900271168 446.5581071549691 911.2257946142727 453.1085658705655Q908.8588221372084 459.631501650382 904.592767091337 464.3929695402902Q900.3267120454653 469.1544374301985 894.381757917025 469.1544374301985ZM858.1340514950066 452.6957218338682L858.1340514950066 452.6957218338682Q861.2991891096856 452.6957218338682 863.9689138803277 448.1544374301985Q866.6386386509699 443.58563009074896 868.8404735133553 437.06269431093244Q871.0147854399607 430.5122355953361 872.5835927794103 424.37462091643704L872.5835927794103 424.37462091643704Q874.9780881922544 415.2645291733178 875.7762533298691 405.8516851366205Q876.5468955317039 396.43884109992325 879.1340514950066 387.3012264210242L879.1340514950066 387.3012264210242Q876.7670790179425 384.74159339350126 873.7946019537222 384.74159339350126L873.7946019537222 384.74159339350126Q869.4184551647314 384.74159339350126 864.8771707610617 389.09021724671226Q860.3083634216122 393.46636403570307 857.7212074583094 398.9984741274462L857.7212074583094 398.9984741274462Q854.5560698436304 405.93425394395996 853.0698313115204 415.2645291733178Q851.5835927794103 424.56728146689574 851.5835927794103 433.09939155863884L851.5835927794103 433.09939155863884Q851.5835927794103 435.27370348524437 851.6936845225296 437.4480154118499Q851.776253329869 439.62232733845536 851.9964368161076 441.60397871460214L851.9964368161076 441.60397871460214Q852.381757917025 447.5489328430425 854.2533175500525 450.13608880634524Q856.1524001188598 452.6957218338682 858.1340514950066 452.6957218338682ZM917.170748742713 469.75994201735443L917.170748742713 469.75994201735443Q914.4184551647314 469.75994201735443 912.5193725959241 467.6681988980884Q910.6478129628965 465.5764557788224 910.6478129628965 460.62232733845536L910.6478129628965 460.62232733845536Q910.6478129628965 459.8516851366205 910.6478129628965 458.94342825588654Q910.6478129628965 458.06269431093244 910.8404735133553 457.07186862285903L910.8404735133553 457.07186862285903Q911.2257946142727 453.4938869714829 911.7212074583094 447.1636117421251Q912.2166203023461 440.8058135769875 912.5193725959241 432.87920807240033Q912.822124889502 424.9526025678132 912.822124889502 417.025997063226L912.822124889502 417.025997063226Q912.822124889502 408.7140704577214 912.3267120454653 401.28287779717095Q911.8312992014287 393.8516851366205 910.6478129628965 389.5030612834095L910.6478129628965 389.5030612834095Q912.2166203023461 389.09021724671226 914.8037762656488 387.3012264210242Q917.3909322289516 385.5397585311159 920.1432258069333 384.93425394395996L920.1432258069333 384.93425394395996Q920.7487303940892 384.74159339350126 921.7395560821626 384.74159339350126L921.7395560821626 384.74159339350126Q925.0973542473002 384.74159339350126 926.0056111280342 388.29205210909754Q926.8863450729882 391.8700337604737 926.8863450729882 397.0168227512994L926.8863450729882 397.0168227512994Q926.8863450729882 400.59480440267555 926.8037762656488 405.43884109992325Q926.6936845225296 410.31040073295077 926.3083634216122 413.8608594485471L926.3083634216122 413.8608594485471Q928.4826753482176 407.53058421918934 931.0423083757405 402.87920807240033Q933.6294643390434 398.2003089898315 936.6019414032635 393.8516851366205L936.6019414032635 393.8516851366205Q939.5744184674837 389.28287779717095 942.9322166326212 384.8241622008407Q946.3175377335388 380.3654466045104 952.0698313115204 380.3654466045104L952.0698313115204 380.3654466045104Q958.0147854399607 380.3654466045104 959.776253329869 384.328749356804Q961.5652441555571 388.29205210909754 961.5652441555571 393.05351999900586L961.5652441555571 393.05351999900586Q961.5652441555571 395.6406759623086 961.3725836050984 397.9250796320333Q961.1799230546396 400.1819603659783 960.987262504181 402.1636117421251L960.987262504181 402.1636117421251Q960.987262504181 403.56728146689574 960.381757917025 409.40214385221685Q959.776253329869 415.2645291733178 959.1982716784928 423.08104293478567Q958.5927670913369 430.89755669625356 958.5927670913369 438.8241622008407L958.5927670913369 438.8241622008407Q958.5927670913369 441.025997063226 958.7854276417956 444.87920807240033Q959.0056111280342 448.7324190815746 959.5835927794103 452.6131530265288Q960.1890973665662 456.46636403570307 961.6753358986764 459.13608880634524Q963.1615744307865 461.8333365127673 965.7212074583094 461.8333365127673L965.7212074583094 461.8333365127673Q967.3175377335388 461.8333365127673 969.2991891096856 460.62232733845536L969.2991891096856 460.62232733845536Q971.473501036291 459.05351999900586 973.1524001188598 456.46636403570307Q974.8588221372084 453.90673100818015 975.8496478252819 451.3195750448774L975.8496478252819 451.3195750448774Q976.6202900271167 449.53058421918934 977.4184551647314 447.3562722925838Q978.2166203023461 445.1819603659783 978.822124889502 442.78746495313425L978.822124889502 442.78746495313425Q979.592767091337 440.4204924760701 980.9964368161075 440.4204924760701L980.9964368161075 440.4204924760701Q981.9872625041809 440.4204924760701 981.9872625041809 442.40214385221685L981.9872625041809 442.40214385221685L981.9872625041809 443.2003089898315Q981.9872625041809 444.5764557788223 981.4918496601442 446.75076770542785Q980.9964368161075 448.95260256781313 980.1982716784928 451.12691449441866L980.1982716784928 451.12691449441866Q977.8312992014287 458.44801541184984 973.1524001188598 463.89755669625356Q968.5010239720709 469.34709798065717 960.1890973665662 469.34709798065717L960.1890973665662 469.34709798065717Q954.6294643390434 469.34709798065717 951.5744184674837 465.0810429347856Q948.4918496601442 460.84251082469393 947.1157028711534 454.09939155863884L947.1157028711534 454.09939155863884Q946.3175377335388 450.328749356804 946.0147854399607 446.5581071549691Q945.7120331463827 442.78746495313425 945.7120331463827 439.0443456870792L945.7120331463827 439.0443456870792Q945.7120331463827 429.7140704577214 947.0056111280342 420.4938869714829Q948.2991891096856 411.3012264210242 948.2991891096856 402.769116329281L948.2991891096856 402.769116329281Q948.2991891096856 399.9892998155196 947.6111157151902 397.5122355953361Q946.8955193849149 395.03517137515263 944.5285469078507 395.03517137515263L944.5285469078507 395.03517137515263Q942.1615744307865 395.03517137515263 938.776253329869 399.60397871460214L938.776253329869 399.60397871460214Q935.4184551647313 403.9526025678132 931.8404735133553 412.37462091643704Q928.2900147977589 420.7966392650609 925.8955193849149 431.3929695402902Q923.5285469078507 442.0168227512994 923.5285469078507 453.1085658705655L923.5285469078507 453.1085658705655Q923.5285469078507 459.8516851366205 924.7120331463827 466.7874649531343L924.7120331463827 466.7874649531343Q923.3358863573919 467.77829064120766 921.1340514950066 468.769116329281Q918.9597395684011 469.75994201735443 917.170748742713 469.75994201735443ZM1058.8588221372083 468.1636117421251L1058.8588221372083 468.1636117421251Q1053.3267120454652 468.1636117421251 1050.2441432381258 465.68654752194163Q1047.1890973665663 463.20948330175815 1047.1890973665663 460.84251082469393L1047.1890973665663 460.84251082469393Q1047.1890973665663 459.24618054946455 1048.5652441555571 458.1452631182719Q1049.941390944548 457.07186862285903 1052.913868008768 457.07186862285903L1052.913868008768 457.07186862285903Q1069.3725836050985 457.07186862285903 1084.8404735133552 450.93425394395996Q1100.2808404858324 444.769116329281 1112.776253329869 434.1727860540517Q1125.2441432381258 423.5764557788223 1132.592767091337 409.89755669625356Q1139.913868008768 396.21865761368474 1139.913868008768 381.1636117421251L1139.913868008768 381.1636117421251Q1139.913868008768 370.07186862285903 1135.1524001188598 362.5305842191893Q1130.4184551647313 355.0168227512994 1122.684510210603 350.06269431093244L1122.684510210603 350.06269431093244Q1111.3725836050985 342.93425394395996 1096.730381770236 339.74159339350126Q1082.060656999594 336.5764557788223 1066.7854276417956 336.5764557788223L1066.7854276417956 336.5764557788223Q1053.1340514950066 336.5764557788223 1040.033134063814 338.75076770542785Q1026.9597395684011 340.9526025678132 1016.0606569995938 344.31040073295077L1016.0606569995938 344.31040073295077Q1008.1340514950066 346.89755669625356 1001.1157028711534 350.75076770542785Q994.0698313115204 354.60397871460214 989.8037762656488 359.28287779717095Q985.5377212197773 363.93425394395996 985.5377212197773 369.0810429347856L985.5377212197773 369.0810429347856Q985.5377212197773 374.03517137515263 989.6111157151902 377.11774018249207Q993.684510210603 380.1727860540517 1000.0147854399606 380.1727860540517L1000.0147854399606 380.1727860540517Q1006.5652441555571 380.1727860540517 1014.7670790179425 376.7048961457948Q1022.9964368161075 373.2370062375379 1031.5285469078508 365.31040073295077L1031.5285469078508 365.31040073295077Q1031.913868008768 364.9250796320334 1032.1065285592267 364.9250796320334L1032.1065285592267 364.9250796320334Q1032.7120331463827 364.9250796320334 1032.7120331463827 365.91590532010673L1032.7120331463827 365.91590532010673Q1032.7120331463827 367.09939155863884 1031.8312992014287 369.0810429347856Q1030.9230423206948 371.06269431093244 1029.1340514950066 372.65902458616176L1029.1340514950066 372.65902458616176Q1022.1982716784928 378.9892998155196 1013.6936845225296 382.07186862285903Q1005.1615744307865 385.12691449441866 997.2349689261994 385.12691449441866L997.2349689261994 385.12691449441866Q995.2533175500525 385.12691449441866 993.1890973665663 384.93425394395996Q991.0973542473001 384.74159339350126 989.3083634216122 384.328749356804L989.3083634216122 384.328749356804Q982.5652441555571 382.75994201735443 978.7120331463827 377.99847412744623Q974.8588221372084 373.2370062375379 974.8588221372084 367.09939155863884L974.8588221372084 367.09939155863884Q974.8588221372084 359.1727860540517 979.7028588344563 353.03517137515263Q984.5468955317039 346.89755669625356 992.5835927794103 342.13608880634524Q1000.6202900271167 337.37462091643704 1010.3083634216121 334.2094833017581L1010.3083634216121 334.2094833017581Q1022.1982716784928 330.24618054946455 1035.9872625041808 327.8516851366205Q1049.7487303940893 325.4847126595563 1063.6202900271167 325.4847126595563L1063.6202900271167 325.4847126595563Q1080.0790056234468 325.4847126595563 1095.7395560821626 329.1452631182719Q1111.3725836050985 332.8058135769875 1123.867996449135 341.1452631182719L1123.867996449135 341.1452631182719Q1134.9597395684011 348.46636403570307 1141.5101982839974 359.47553834762965Q1148.033134063814 370.4571897237765 1148.033134063814 384.5489328430425L1148.033134063814 384.5489328430425Q1148.033134063814 401.97095119166636 1140.519372595924 417.13608880634524Q1132.9780881922543 432.3012264210242 1120.0973542473002 443.77829064120766Q1107.2166203023462 455.28287779717095 1091.3634092931718 461.723244769648Q1075.5101982839974 468.1636117421251 1058.8588221372083 468.1636117421251ZM1046.776253329869 472.9250796320333L1046.1982716784928 472.9250796320333Q1041.4368037885847 472.9250796320333 1038.6569872748232 469.2645291733178Q1035.8771707610617 465.5764557788224 1034.308363421612 461.2278319256113L1034.308363421612 461.2278319256113Q1032.519372595924 455.4755383476297 1031.7212074583094 448.4571897237765Q1030.9230423206948 441.41131816414344 1030.9230423206948 433.4847126595563L1030.9230423206948 433.4847126595563Q1030.9230423206948 421.59480440267555 1032.3267120454652 408.90673100818015Q1033.7028588344563 396.21865761368474 1035.7946019537221 384.74159339350126Q1037.8588221372083 373.2370062375379 1039.6478129628965 365.11774018249207L1039.6478129628965 365.11774018249207Q1040.8312992014287 359.97095119166636 1041.822124889502 354.7140704577214Q1042.8129505775755 349.4571897237764 1044.7946019537221 344.91590532010673L1044.7946019537221 344.91590532010673Q1044.987262504181 344.31040073295077 1045.702858834456 344.11774018249207Q1046.3909322289514 343.9250796320333 1046.9689138803278 343.9250796320333L1046.9689138803278 343.9250796320333Q1048.3725836050983 343.9250796320333 1051.427629476658 344.50306128340947Q1054.5101982839974 345.1085658705655 1057.3725836050985 346.29205210909754Q1060.262491861979 347.4755383476297 1060.8404735133552 349.2645291733178L1060.8404735133552 349.2645291733178L1060.8404735133552 350.25535486139114Q1056.684510210603 362.5305842191893 1052.5285469078508 377.11774018249207Q1048.3725836050983 391.677373210015 1045.592767091337 407.2278319256113Q1042.8129505775755 422.77829064120766 1042.8129505775755 438.43884109992325L1042.8129505775755 438.43884109992325L1042.8129505775755 439.2370062375379Q1042.8129505775755 444.769116329281 1042.9230423206945 451.12691449441866Q1043.0056111280342 457.4571897237765 1043.913868008768 463.20948330175815Q1044.7946019537221 468.9617768797398 1046.776253329869 472.9250796320333L1046.776253329869 472.9250796320333ZM1179.7395560821626 471.93425394395996L1179.7395560821626 471.93425394395996Q1170.2441432381258 471.93425394395996 1164.381757917025 466.07186862285903Q1158.5468955317037 460.2370062375379 1155.8771707610617 451.62232733845536Q1153.2074459904193 443.0076484393728 1153.2074459904193 434.6681988980884L1153.2074459904193 434.6681988980884Q1153.2074459904193 425.1727860540517 1155.1890973665663 415.5397585311159Q1157.170748742713 405.93425394395996 1161.4092808528048 398.0076484393728Q1165.6753358986762 390.0810429347856 1172.2257946142727 385.2370062375379Q1178.748730394089 380.3654466045104 1187.6661615867497 380.3654466045104L1187.6661615867497 380.3654466045104Q1194.0239597518873 380.3654466045104 1197.5744184674836 384.1360888063453Q1201.15240011886 387.90673100818015 1201.15240011886 395.2278319256113L1201.15240011886 395.2278319256113Q1201.15240011886 405.13608880634524 1196.3083634216123 412.78746495313425Q1191.4368037885847 420.41131816414344 1184.1157028711534 425.1727860540517Q1176.7670790179423 429.90673100818015 1168.8404735133552 431.6957218338682L1168.8404735133552 431.6957218338682L1168.8404735133552 432.68654752194163Q1168.8404735133552 440.8058135769875 1170.5468955317037 447.8516851366205Q1172.2257946142727 454.89755669625356 1176.0790056234468 459.13608880634524Q1179.9597395684011 463.40214385221685 1186.2900147977589 463.40214385221685L1186.2900147977589 463.40214385221685Q1194.0239597518873 463.40214385221685 1198.1799230546396 456.9617768797398Q1202.335886357392 450.52140990726275 1204.730381770236 440.6131530265288L1204.730381770236 440.6131530265288Q1204.9230423206948 439.81498788891406 1205.4184551647313 439.12691449441866Q1205.913868008768 438.43884109992325 1206.2991891096856 438.43884109992325L1206.2991891096856 438.43884109992325Q1208.0881799353735 438.43884109992325 1207.8955193849147 441.025997063226L1207.8955193849147 441.025997063226Q1207.2900147977589 446.3654466045104 1205.501023972071 451.12691449441866Q1203.7395560821626 455.8883823843269 1201.7579047060158 459.24618054946455L1201.7579047060158 459.24618054946455Q1197.9872625041808 465.3837952283636 1192.730381770236 468.65902458616176Q1187.473501036291 471.93425394395996 1179.7395560821626 471.93425394395996ZM1169.060656999594 426.9342539439599L1169.060656999594 427.15443743019847Q1175.3909322289514 425.5581071549691 1180.15240011886 420.90673100818015Q1184.913868008768 416.25535486139114 1187.58359277941 409.89755669625356Q1190.2533175500525 403.56728146689574 1190.2533175500525 397.0168227512994L1190.2533175500525 397.0168227512994L1190.2533175500525 396.025997063226Q1190.2533175500525 392.4755383476297 1189.1524001188598 389.28287779717095Q1188.0790056234468 386.11774018249207 1185.1065285592267 386.11774018249207L1185.1065285592267 386.11774018249207Q1181.5285469078508 386.11774018249207 1178.8588221372083 389.58563009074896Q1176.1890973665663 393.05351999900586 1174.2900147977589 398.4204924760701Q1172.4184551647313 403.75994201735443 1171.2349689261994 409.5122355953361Q1170.0514826876672 415.2645291733178 1169.5560698436304 419.9984741274462Q1169.060656999594 424.75994201735443 1169.060656999594 426.9342539439599L1169.060656999594 426.9342539439599ZM1229.0881799353738 468.5489328430425L1229.0881799353738 468.5489328430425Q1224.7395560821626 468.5489328430425 1222.0698313115204 463.89755669625356Q1219.3725836050985 459.24618054946455 1217.9964368161077 451.62232733845536Q1216.6202900271167 443.9984741274462 1215.822124889502 434.8608594485471Q1215.0239597518873 425.75076770542785 1214.6386386509698 417.025997063226L1214.6386386509698 417.025997063226Q1213.2349689261991 425.94342825588654 1210.6753358986764 434.4755383476297Q1208.0881799353735 443.0076484393728 1205.3083634216123 451.7048961457948L1205.3083634216123 451.7048961457948Q1204.3175377335388 454.89755669625356 1202.748730394089 454.89755669625356L1202.748730394089 454.89755669625356Q1201.3450606693186 454.89755669625356 1201.3450606693186 453.1085658705655L1201.3450606693186 453.1085658705655Q1201.3450606693186 452.50306128340947 1201.7579047060158 450.93425394395996L1201.7579047060158 450.93425394395996Q1204.5101982839974 441.60397871460214 1206.4918496601442 433.59480440267555Q1208.473501036291 425.5581071549691 1209.684510210603 416.44801541184984L1209.684510210603 416.44801541184984Q1210.4551524124377 411.87920807240033 1210.8679964491353 406.62232733845536Q1211.2533175500525 401.3929695402902 1211.4459781005112 396.43884109992325Q1211.6661615867497 391.4847126595563 1211.6661615867497 388.5122355953361L1211.6661615867497 388.5122355953361Q1214.8312992014287 384.93425394395996 1219.7854276417956 384.93425394395996L1219.7854276417956 384.93425394395996L1219.9780881922543 384.93425394395996Q1225.1248771830801 384.93425394395996 1226.6111157151902 391.2645291733178Q1228.0973542473002 397.62232733845536 1228.0973542473002 406.9250796320333L1228.0973542473002 406.9250796320333L1228.0973542473002 412.07186862285903Q1228.0973542473002 414.65902458616176 1228.2900147977589 419.8058135769875Q1228.5101982839974 424.9526025678132 1229.0881799353738 431.11774018249207Q1229.6936845225296 437.25535486139114 1230.684510210603 442.78746495313425Q1231.6753358986762 448.34709798065717 1233.2441432381258 452.0076484393728Q1234.8404735133552 455.6681988980884 1237.0147854399606 455.6681988980884L1237.0147854399606 455.6681988980884Q1240.4001065408781 455.6681988980884 1243.9505652564744 449.44801541184984Q1247.5285469078506 443.2003089898315 1249.5101982839974 435.27370348524437L1249.5101982839974 435.27370348524437Q1250.8863450729882 429.7140704577214 1252.0698313115204 421.09939155863884Q1253.2808404858324 412.4847126595563 1253.2808404858324 403.75994201735443L1253.2808404858324 403.75994201735443Q1253.2808404858324 397.0168227512994 1252.2900147977589 390.9892998155196Q1251.2991891096854 384.93425394395996 1249.0973542473002 381.1636117421251L1249.0973542473002 381.1636117421251Q1248.7120331463827 380.58563009074896 1248.7120331463827 379.37462091643704L1248.7120331463827 379.37462091643704Q1248.7120331463827 377.0076484393728 1251.1890973665663 375.025997063226Q1253.6661615867497 373.0443456870792 1256.6386386509698 373.0443456870792L1256.6386386509698 373.0443456870792Q1260.6019414032635 373.0443456870792 1262.58359277941 377.2003089898315L1262.58359277941 377.2003089898315Q1263.9597395684011 380.1727860540517 1263.9597395684011 386.72324476964803L1263.9597395684011 386.72324476964803Q1263.9597395684011 394.4571897237765 1262.0881799353735 404.94342825588654Q1260.2166203023462 415.4571897237765 1256.8312992014287 426.5489328430425Q1253.473501036291 437.6406759623086 1249.0147854399606 447.1636117421251Q1244.5560698436304 456.65902458616176 1239.4918496601442 462.60397871460214Q1234.4551524124377 468.5489328430425 1229.0881799353738 468.5489328430425ZM1341.0514826876672 475.4847126595563L1341.0514826876672 475.4847126595563Q1328.3634092931718 475.4847126595563 1318.9505652564744 470.53058421918934Q1309.5377212197773 465.5764557788224 1303.3175377335388 456.9617768797398Q1297.0698313115204 448.34709798065717 1293.9046936968416 437.25535486139114Q1290.7120331463827 426.1636117421251 1290.7120331463827 414.05351999900586L1290.7120331463827 414.05351999900586Q1282.0147854399606 410.8883823843269 1276.3450606693186 404.8608594485471Q1270.702858834456 398.8058135769875 1270.702858834456 389.6957218338682L1270.702858834456 389.6957218338682Q1270.702858834456 384.74159339350126 1272.9872625041808 381.3562722925838Q1275.2716661739057 377.99847412744623 1278.3267120454652 375.8241622008407Q1281.4092808528048 373.6498502742352 1283.9964368161077 372.8516851366205L1283.9964368161077 372.8516851366205Q1284.1890973665663 372.8516851366205 1284.381757917025 372.7415933935012Q1284.5744184674836 372.65902458616176 1284.7670790179423 372.65902458616176L1284.7670790179423 372.65902458616176Q1286.170748742713 372.65902458616176 1286.170748742713 374.2278319256113L1286.170748742713 374.2278319256113Q1286.170748742713 375.41131816414344 1284.7670790179423 376.0168227512994L1284.7670790179423 376.0168227512994Q1282.4001065408781 377.0076484393728 1280.3083634216123 380.77829064120766Q1278.2441432381258 384.5489328430425 1278.2441432381258 388.29205210909754L1278.2441432381258 388.29205210909754Q1278.2441432381258 394.2370062375379 1281.9046936968416 398.6957218338682Q1285.5652441555571 403.15443743019847 1290.9322166326212 406.34709798065717L1290.9322166326212 406.34709798065717Q1291.9230423206945 392.06269431093244 1296.9597395684011 378.1911346779049Q1302.0239597518873 364.3195750448774 1310.941390944548 353.11774018249207Q1319.8588221372083 341.94342825588654 1332.6294643390434 335.28287779717095Q1345.427629476658 328.6498502742352 1361.8588221372083 328.6498502742352L1361.8588221372083 328.6498502742352Q1380.8771707610617 328.6498502742352 1390.0147854399606 337.56728146689574Q1399.1248771830801 346.4847126595563 1399.1248771830801 359.5581071549691L1399.1248771830801 359.5581071549691Q1399.1248771830801 368.8883823843269 1396.1524001188598 376.62232733845536L1396.1524001188598 376.62232733845536Q1402.0973542473002 389.09021724671226 1402.0973542473002 405.3562722925838L1402.0973542473002 405.3562722925838Q1402.0973542473002 417.8241622008407 1398.3267120454652 430.2094833017581Q1394.5560698436307 442.59480440267555 1386.932216632621 452.8058135769875Q1379.3083634216123 463.0168227512994 1367.8037762656486 469.2645291733178Q1356.3267120454652 475.4847126595563 1341.0514826876672 475.4847126595563ZM1317.4643267243644 413.4755383476297L1317.4643267243644 413.4755383476297Q1326.7946019537221 413.4755383476297 1337.0056111280342 411.3012264210242Q1347.1890973665663 409.09939155863884 1356.822124889502 404.5581071549691Q1366.4276294766578 399.9892998155196 1373.941390944548 393.1636117421251Q1381.4826753482175 386.31040073295077 1385.6386386509698 376.81498788891406L1385.6386386509698 376.81498788891406Q1382.0881799353735 369.27370348524437 1375.6478129628965 363.93425394395996Q1369.2074459904193 358.56728146689574 1359.4918496601442 356.58563009074896L1359.4918496601442 356.58563009074896Q1358.6936845225296 356.3929695402902 1358.6936845225296 355.81498788891406L1358.6936845225296 355.81498788891406Q1358.6936845225296 354.41131816414344 1360.8679964491353 354.41131816414344L1360.8679964491353 354.41131816414344L1362.8496478252819 354.41131816414344Q1370.9689138803278 354.41131816414344 1377.519372595924 357.3837952283636Q1384.0698313115204 360.3562722925838 1388.8037762656486 365.5030612834095L1388.8037762656486 365.5030612834095Q1389.4092808528048 361.9526025678132 1389.4092808528048 358.1819603659783L1389.4092808528048 358.1819603659783Q1389.4092808528048 349.07186862285903 1384.9505652564744 343.62232733845536Q1380.4918496601442 338.1727860540517 1374.1615744307865 335.6957218338682Q1367.8037762656486 333.21865761368474 1362.4643267243644 333.21865761368474L1362.4643267243644 333.21865761368474Q1350.1615744307865 333.21865761368474 1340.2533175500525 340.1544374301985Q1330.3450606693186 347.09021724671226 1323.2166203023462 358.56728146689574Q1316.0881799353738 370.07186862285903 1311.9322166326212 384.0535199990058Q1307.776253329869 398.0076484393728 1306.7854276417956 412.07186862285903L1306.7854276417956 412.07186862285903Q1309.7579047060158 412.8700337604737 1312.6202900271167 413.1727860540517Q1315.4826753482175 413.4755383476297 1317.4643267243644 413.4755383476297ZM1340.473501036291 470.94342825588654L1340.473501036291 470.94342825588654Q1351.1524001188598 470.94342825588654 1360.2900147977589 464.58563009074896Q1369.4001065408781 458.25535486139114 1376.2257946142727 447.9617768797398Q1383.0790056234468 437.6406759623086 1386.822124889502 425.25535486139114Q1390.592767091337 412.8700337604737 1390.592767091337 400.78746495313425L1390.592767091337 400.78746495313425Q1390.592767091337 397.62232733845536 1390.2900147977589 394.6498502742352Q1390.0147854399606 391.677373210015 1389.6019414032635 388.89755669625356L1389.6019414032635 388.89755669625356Q1381.6753358986762 399.41131816414344 1369.4001065408781 405.93425394395996Q1357.0973542473002 412.4847126595563 1343.5285469078506 415.4571897237765Q1329.9597395684011 418.42966678799667 1318.0698313115204 418.42966678799667L1318.0698313115204 418.42966678799667Q1312.3175377335388 418.42966678799667 1306.5652441555571 417.8241622008407L1306.5652441555571 417.8241622008407L1306.5652441555571 419.6131530265288Q1306.5652441555571 433.29205210909754 1310.1432258069333 444.9892998155196Q1313.7212074583094 456.65902458616176 1321.2349689261994 463.81498788891406Q1328.7762533298692 470.94342825588654 1340.473501036291 470.94342825588654ZM1435.1799230546399 470.3379236687306L1435.1799230546399 470.3379236687306Q1426.262491861979 470.3379236687306 1420.2349689261991 466.07186862285903Q1414.1799230546399 461.8333365127673 1414.1799230546399 450.93425394395996L1414.1799230546399 450.93425394395996Q1414.1799230546399 450.52140990726275 1414.2900147977589 449.03517137515263Q1414.3725836050985 447.5489328430425 1414.5652441555571 445.980125503593L1414.5652441555571 445.980125503593Q1413.381757917025 443.77829064120766 1413.381757917025 440.03517137515263L1413.381757917025 440.03517137515263Q1413.381757917025 437.6406759623086 1414.1799230546399 435.8516851366205Q1414.9780881922543 434.09021724671226 1416.5468955317037 434.09021724671226L1416.5468955317037 434.09021724671226L1416.7670790179423 434.09021724671226Q1417.3450606693186 434.09021724671226 1418.335886357392 435.46636403570307L1418.335886357392 435.46636403570307Q1420.9230423206945 428.1452631182719 1423.0973542473002 420.3012264210242Q1425.2716661739057 412.4847126595563 1427.060656999594 406.34709798065717L1427.060656999594 406.34709798065717Q1429.0423083757405 399.1911346779049 1432.1248771830801 390.9892998155196Q1435.1799230546399 382.75994201735443 1441.9230423206945 378.3837952283636L1441.9230423206945 378.3837952283636Q1447.0698313115204 375.025997063226 1453.0147854399609 375.025997063226L1453.0147854399609 375.025997063226Q1453.427629476658 375.025997063226 1454.0056111280342 375.1360888063453Q1454.6111157151902 375.21865761368474 1454.9964368161077 375.21865761368474L1454.9964368161077 375.21865761368474Q1456.5927670913368 375.41131816414344 1456.5927670913368 376.62232733845536L1456.5927670913368 376.62232733845536Q1456.5927670913368 377.99847412744623 1455.1890973665663 377.99847412744623L1455.1890973665663 377.99847412744623Q1453.0147854399609 378.1911346779049 1452.0239597518873 381.46636403570307Q1451.033134063814 384.74159339350126 1451.033134063814 388.89755669625356L1451.033134063814 388.89755669625356Q1451.033134063814 389.8883823843269 1451.033134063814 391.07186862285903Q1451.033134063814 392.25535486139114 1451.2257946142727 393.24618054946455L1451.2257946142727 393.24618054946455Q1452.0239597518873 399.7966392650609 1454.8037762656488 407.6131530265288Q1457.58359277941 415.4571897237765 1460.060656999594 423.27370348524437Q1462.5377212197773 431.11774018249207 1462.5377212197773 437.8333365127673L1462.5377212197773 437.8333365127673L1462.5377212197773 438.8241622008407Q1462.5377212197773 441.41131816414344 1462.2349689261991 444.3837952283636Q1461.932216632621 447.3562722925838 1460.941390944548 450.13608880634524L1460.941390944548 450.13608880634524Q1463.7212074583094 449.94342825588654 1466.3909322289514 449.44801541184984Q1469.060656999594 448.95260256781313 1471.262491861979 448.1544374301985L1471.262491861979 448.1544374301985Q1474.0147854399609 446.97095119166636 1475.7212074583094 445.37462091643704Q1477.4001065408781 443.77829064120766 1478.58359277941 441.7966392650609L1478.58359277941 441.7966392650609Q1478.9689138803276 441.21865761368474 1479.5744184674836 441.21865761368474L1479.5744184674836 441.21865761368474Q1481.170748742713 441.21865761368474 1481.170748742713 443.2003089898315L1481.170748742713 443.2003089898315Q1481.170748742713 443.77829064120766 1480.7579047060158 444.5764557788223L1480.7579047060158 444.5764557788223Q1478.58359277941 448.95260256781313 1472.8312992014287 451.7048961457948Q1467.0790056234468 454.4847126595563 1459.3725836050985 454.89755669625356L1459.3725836050985 454.89755669625356Q1456.5927670913368 461.2278319256113 1450.730381770236 465.7966392650609Q1444.8955193849147 470.3379236687306 1435.1799230546399 470.3379236687306ZM1444.702858834456 447.9617768797398L1444.702858834456 447.9617768797398Q1445.0881799353735 445.75994201735443 1445.2808404858324 443.3929695402902Q1445.501023972071 441.025997063226 1445.501023972071 438.63150165038195L1445.501023972071 438.63150165038195Q1445.501023972071 434.8608594485471 1445.0881799353735 431.0076484393728Q1444.702858834456 427.15443743019847 1444.0973542473002 423.3837952283636L1444.0973542473002 423.3837952283636Q1442.7212074583094 414.05351999900586 1440.822124889502 406.34709798065717Q1438.9505652564744 398.6131530265288 1438.9505652564744 392.4755383476297L1438.9505652564744 392.4755383476297Q1438.9505652564744 389.28287779717095 1439.5560698436304 386.72324476964803L1439.5560698436304 386.72324476964803Q1438.5652441555571 386.72324476964803 1437.354234981245 389.6957218338682Q1436.170748742713 392.6681988980884 1434.987262504181 396.43884109992325Q1433.8037762656488 400.1819603659783 1433.0056111280342 403.15443743019847L1433.0056111280342 403.15443743019847Q1430.6386386509698 411.68654752194163 1427.8588221372083 420.71407045772145Q1425.0790056234468 429.7140704577214 1421.913868008768 438.43884109992325L1421.913868008768 438.43884109992325Q1424.0881799353735 439.81498788891406 1426.9505652564744 441.21865761368474Q1429.8404735133554 442.59480440267555 1432.6202900271167 443.77829064120766L1432.6202900271167 443.77829064120766Q1435.1799230546399 444.9892998155196 1438.262491861979 446.06269431093244Q1441.3175377335388 447.1636117421251 1444.702858834456 447.9617768797398ZM1429.8404735133554 463.81498788891406L1429.8404735133554 463.81498788891406L1430.6386386509698 463.81498788891406Q1434.1890973665663 463.40214385221685 1437.7670790179423 461.3379236687306Q1441.3175377335388 459.24618054946455 1442.913868008768 454.89755669625356L1442.913868008768 454.89755669625356Q1442.913868008768 454.677373210015 1443.023959751887 454.59480440267555Q1443.1065285592267 454.4847126595563 1443.1065285592267 454.29205210909754L1443.1065285592267 454.29205210909754Q1435.7854276417956 453.68654752194163 1429.3450606693186 452.4204924760701Q1422.9046936968416 451.12691449441866 1418.941390944548 449.1452631182719L1418.941390944548 449.1452631182719Q1418.941390944548 449.72324476964803 1418.8312992014287 450.328749356804Q1418.748730394089 450.93425394395996 1418.748730394089 451.3195750448774L1418.748730394089 451.3195750448774Q1418.748730394089 457.2645291733178 1421.8037762656486 460.5397585311159Q1424.8863450729882 463.81498788891406 1429.8404735133554 463.81498788891406Z " fill="#ddc6b6" transform="matrix(0.5907488953745631,0,0,0.5907488953745632,0,63.41409046347019)"/></g></svg>